<svg xmlns="http://www.w3.org/2000/svg">
    <defs>

        <symbol id="check" viewBox="0 0 16 16">
<path d="M1 5.5L3.25 7L7 1" stroke="currentColor" fill="none" stroke-width="2" stroke-linecap="round" stroke-linejoin="round"/>



        </symbol>

        <symbol id="success" width="100" height="100" viewBox="0 0 100 100">
            <path
                d="M3.33337 18.8333H15C15.4421 18.8333 15.866 18.6577 16.1786 18.3451C16.4911 18.0326 16.6667 17.6087 16.6667 17.1666V6.74996L12.0834 2.16663H5.00004C4.55801 2.16663 4.13409 2.34222 3.82153 2.65478C3.50897 2.96734 3.33337 3.39127 3.33337 3.83329V7.16663"
                stroke="currentColor" fill="none" stroke-width="2" stroke-linecap="round" stroke-linejoin="round" />
            <path d="M11.6666 2.16663V7.16663H16.6666" stroke="currentColor"  fill="none" stroke-width="2" stroke-linecap="round"
                stroke-linejoin="round" />
            <path d="M2.5 13L4.16667 14.6667L7.5 11.3334" stroke="currentColor"  fill="none" stroke-width="2" stroke-linecap="round"
                stroke-linejoin="round" />
        </symbol>

        <symbol id="error">
            <path
                d="M3.33337 18.8333H15C15.4421 18.8333 15.866 18.6577 16.1786 18.3451C16.4911 18.0326 16.6667 17.6087 16.6667 17.1666V6.74996L12.0834 2.16663H5.00004C4.55801 2.16663 4.13409 2.34222 3.82153 2.65478C3.50897 2.96734 3.33337 3.39127 3.33337 3.83329V7.16663"
                stroke="white" stroke-width="2" stroke-linecap="round" stroke-linejoin="round" />
            <path d="M11.6666 2.16663V7.16663H16.6666" stroke="currentColor" stroke-width="2" stroke-linecap="round"
                stroke-linejoin="round" />
            <path d="M2.5 10.9166L6.66667 15.0833" stroke="currentColor" stroke-width="2" stroke-linecap="round"
                stroke-linejoin="round" />
            <path d="M6.66667 10.9166L2.5 15.0833" stroke="currentColor" stroke-width="2" stroke-linecap="round"
                stroke-linejoin="round" />

        </symbol>

        <symbol id="cross">
            <g opacity="0.5">
                <path d="M15 5.5L5 15.5" stroke="currentColor" stroke-width="2" stroke-linecap="round"
                    stroke-linejoin="round" />
                <path d="M5 5.5L15 15.5" stroke="currentColor" stroke-width="2" stroke-linecap="round"
                    stroke-linejoin="round" />
            </g>
        </symbol>


    </defs>
</svg>
