<svg xmlns="http://www.w3.org/2000/svg">
    <defs>

        <symbol id="check" viewBox="0 0 16 16">
            <path d="M1 5.5L3.25 7L7 1" stroke="currentColor" fill="none" stroke-width="2" stroke-linecap="round"
                stroke-linejoin="round" />



        </symbol>

        <symbol id="success" width="100" height="100" viewBox="0 0 100 100">
            <path
                d="M3.33337 18.8333H15C15.4421 18.8333 15.866 18.6577 16.1786 18.3451C16.4911 18.0326 16.6667 17.6087 16.6667 17.1666V6.74996L12.0834 2.16663H5.00004C4.55801 2.16663 4.13409 2.34222 3.82153 2.65478C3.50897 2.96734 3.33337 3.39127 3.33337 3.83329V7.16663"
                stroke="currentColor" fill="none" stroke-width="2" stroke-linecap="round" stroke-linejoin="round" />
            <path d="M11.6666 2.16663V7.16663H16.6666" stroke="currentColor" fill="none" stroke-width="2"
                stroke-linecap="round" stroke-linejoin="round" />
            <path d="M2.5 13L4.16667 14.6667L7.5 11.3334" stroke="currentColor" fill="none" stroke-width="2"
                stroke-linecap="round" stroke-linejoin="round" />
        </symbol>

        <symbol id="error">
            <path
                d="M3.33337 18.8333H15C15.4421 18.8333 15.866 18.6577 16.1786 18.3451C16.4911 18.0326 16.6667 17.6087 16.6667 17.1666V6.74996L12.0834 2.16663H5.00004C4.55801 2.16663 4.13409 2.34222 3.82153 2.65478C3.50897 2.96734 3.33337 3.39127 3.33337 3.83329V7.16663"
                stroke="white" stroke-width="2" stroke-linecap="round" stroke-linejoin="round" />
            <path d="M11.6666 2.16663V7.16663H16.6666" stroke="currentColor" stroke-width="2" stroke-linecap="round"
                stroke-linejoin="round" />
            <path d="M2.5 10.9166L6.66667 15.0833" stroke="currentColor" stroke-width="2" stroke-linecap="round"
                stroke-linejoin="round" />
            <path d="M6.66667 10.9166L2.5 15.0833" stroke="currentColor" stroke-width="2" stroke-linecap="round"
                stroke-linejoin="round" />

        </symbol>

        <symbol id="cross">
            <path d="M15 5.5L5 15.5" stroke="currentColor" stroke-width="2" stroke-linecap="round"
                stroke-linejoin="round" />
            <path d="M5 5.5L15 15.5" stroke="currentColor" stroke-width="2" stroke-linecap="round"
                stroke-linejoin="round" />
        </symbol>

        <symbol id="trash">
            <path d="M3 6H21" stroke="currentColor" fill="none" stroke-width="2" stroke-linecap="round"
                stroke-linejoin="round" />
            <path d="M19 6V20C19 21 18 22 17 22H7C6 22 5 21 5 20V6" stroke="currentColor" fill="none" stroke-width="2"
                stroke-linecap="round" stroke-linejoin="round" />
            <path d="M8 6V4C8 3 9 2 10 2H14C15 2 16 3 16 4V6" stroke="currentColor" fill="none" stroke-width="2"
                stroke-linecap="round" stroke-linejoin="round" />
            <path d="M10 11V17" stroke="currentColor" fill="none" stroke-width="2" stroke-linecap="round"
                stroke-linejoin="round" />
            <path d="M14 11V17" stroke="currentColor" fill="none" stroke-width="2" stroke-linecap="round"
                stroke-linejoin="round" />

        </symbol>

        <symbol id="logo">
            <g clip-path="url(#clip0_38_1657)">
                <path d="M18.0469 29.0417V39.2917L22.3438 35.875L26.6406 39.2917V33.3542V29.0417H18.0469Z"
                    fill="#1F8B48" />
                <path
                    d="M1.71875 15.5458V15.5458C1.71875 11.0352 1.71875 8.77992 2.50886 7.02081C3.4118 5.01052 5.02094 3.40138 7.03124 2.49844C8.79035 1.70833 11.0456 1.70833 15.5562 1.70833H49.2813C51.1669 1.70833 52.1097 1.70833 52.6955 2.29411C53.2812 2.8799 53.2812 3.82271 53.2812 5.70833V17.3542C53.2812 19.2398 53.2812 20.1826 52.6955 20.7684C52.1097 21.3542 51.1669 21.3542 49.2812 21.3542H9.40625C5.16056 21.3542 1.71875 24.796 1.71875 29.0417V29.0417C1.71875 33.2873 5.16056 36.7292 9.40625 36.7292H18.0469M26.6406 36.7292H53.2812"
                    stroke="currentColor" fill="none" stroke-width="2" stroke-linecap="round" stroke-linejoin="round" />
                <path d="M9.45312 29.0417H53.2812" stroke="currentColor" fill="none" stroke-width="2"
                    stroke-linecap="round" stroke-linejoin="round" />
                <path d="M18.0469 29.0417V39.2917L22.3438 35.875L26.6406 39.2917V29.0417" stroke="currentColor"
                    fill="none" stroke-width="2" stroke-linecap="round" stroke-linejoin="round" />
            </g>
            <defs>
                <clipPath id="clip0_38_1657">
                    <rect width="55" height="41" fill="white" />
                </clipPath>
            </defs>

        </symbol>


    </defs>
</svg>
